<svg viewBox="0 0 512 512" xmlns="http://www.w3.org/2000/svg">
  <!-- PWA Icon Template for foswvs-go -->
  <!-- Background circle (teal/green) -->
  <circle cx="256" cy="256" r="256" fill="#0d9488"/>

  <!-- WiFi symbol -->
  <g transform="translate(256, 200)" fill="none" stroke="white" stroke-width="24" stroke-linecap="round" stroke-linejoin="round">
    <!-- Outer arc: WiFi range -->
    <path d="M-80 0A120 120 0 0 1 80 0" />

    <!-- Middle arc: Connected devices -->
    <path d="M-40 40A60 60 0 0 1 40 40" />

    <!-- Signal dot -->
    <circle cx="0" cy="100" r="12" fill="white" stroke="none"/>
  </g>

  <!-- Alternative designs below (uncomment to use) -->

  <!-- Option 2: Coin symbol -->
  <!--
  <g transform="translate(256, 256)">
    <circle cx="0" cy="0" r="150" fill="white" stroke="none" opacity="0.95"/>
    <circle cx="0" cy="0" r="140" fill="#0d9488" stroke="white" stroke-width="10"/>
    <text x="0" y="50" font-size="120" font-weight="bold" text-anchor="middle" fill="white">₱</text>
  </g>
  -->

  <!-- Option 3: Router symbol -->
  <!--
  <g transform="translate(256, 256)" fill="none" stroke="white" stroke-width="20" stroke-linecap="round" stroke-linejoin="round">
    <rect x="-60" y="-80" width="120" height="60" rx="8"/>
    <circle cx="-30" cy="-40" r="8" fill="white" stroke="none"/>
    <circle cx="0" cy="-40" r="8" fill="white" stroke="none"/>
    <circle cx="30" cy="-40" r="8" fill="white" stroke="none"/>
    <path d="M-80 20 Q -80 100 0 120 Q 80 100 80 20"/>
    <path d="M-60 30 Q -60 80 0 95 Q 60 80 60 30"/>
    <path d="M-40 40 Q -40 65 0 75 Q 40 65 40 40"/>
  </g>
  -->

  <!-- Option 4: Smartphone with WiFi -->
  <!--
  <g transform="translate(256, 256)">
    <rect x="-50" y="-100" width="100" height="180" rx="12" fill="white" stroke="white" stroke-width="8"/>
    <rect x="-40" y="-90" width="80" height="160" rx="8" fill="#0d9488" stroke="none"/>
    <circle cx="0" cy="50" r="8" fill="white" stroke="none"/>
    <g transform="translate(0, -50)" fill="none" stroke="white" stroke-width="6" stroke-linecap="round" stroke-linejoin="round">
      <path d="M-20 0A30 30 0 0 1 20 0" />
      <path d="M-10 10A15 15 0 0 1 10 10" />
      <circle cx="0" cy="22" r="2" fill="white" stroke="none"/>
    </g>
  </g>
  -->
</svg>
